<svg width="352" height="200" viewBox="0 0 352 200" fill="none" xmlns="http://www.w3.org/2000/svg">
<path fill-rule="evenodd" clip-rule="evenodd" d="M109.04 160.198H101.484L107.398 132.509L115.638 129.48L109.042 160.194" fill="#D61F26"/>
<path fill-rule="evenodd" clip-rule="evenodd" d="M92.8092 144.339C90.9998 144.339 89.9599 145.837 89.5376 147.571C93.1151 147.571 94.1984 146.454 94.1984 145.527C94.1984 144.876 93.6163 144.339 92.8092 144.339ZM88.6911 152.421C88.6516 152.611 88.6121 152.962 88.6121 153.151C88.6121 154.385 89.4567 154.809 91.6943 154.809C93.6932 154.809 96.5406 154.306 98.2001 153.732V159.391C96.0828 160.16 92.7678 160.581 90.1098 160.581C83.8744 160.581 80.8711 158.886 80.8711 153.23C80.8711 147.678 83.4501 139.021 93.3894 139.021C99.6998 139.021 101.584 141.872 101.584 144.878C101.584 148.765 98.2376 152.074 88.6911 152.421Z" fill="#D61F26"/>
<path fill-rule="evenodd" clip-rule="evenodd" d="M122.758 138.029C120.183 138.029 118.525 136.373 118.525 134.102C118.525 131.136 120.605 129.482 123.18 129.482C125.801 129.482 127.419 131.136 127.419 133.37C127.419 136.373 125.378 138.029 122.758 138.029Z" fill="#D61F26"/>
<path fill-rule="evenodd" clip-rule="evenodd" d="M117.461 139.716H125.235L121.305 159.89H113.451L116.218 145.722" fill="#D61F26"/>
<path fill-rule="evenodd" clip-rule="evenodd" d="M147.642 139.716C144.944 146.494 141.979 153.114 138.21 159.89H128.58C127.351 153.497 126.808 146.76 126.966 139.716H134.822C134.672 143 134.696 146.289 134.893 149.57C134.934 150.419 135.013 151.224 135.088 152.039H135.131C135.475 151.224 135.858 150.421 136.207 149.57C137.553 146.255 138.784 142.644 139.713 139.716H147.642Z" fill="#D61F26"/>
<path fill-rule="evenodd" clip-rule="evenodd" d="M158.153 144.339C156.347 144.339 155.302 145.837 154.875 147.571C158.461 147.571 159.538 146.454 159.538 145.527C159.538 144.876 158.966 144.339 158.153 144.339ZM154.037 152.421C153.99 152.662 153.962 152.906 153.954 153.151C153.954 154.385 154.804 154.809 157.034 154.809C159.039 154.809 161.888 154.306 163.544 153.732V159.391C161.425 160.16 158.113 160.581 155.459 160.581C149.218 160.581 146.217 158.886 146.217 153.23C146.217 147.678 148.794 139.021 158.729 139.021C165.044 139.021 166.928 141.872 166.928 144.878C166.928 148.765 163.585 152.074 154.037 152.421Z" fill="#D61F26"/>
<path fill-rule="evenodd" clip-rule="evenodd" d="M182.025 146.839C181.406 146.691 180.773 146.612 180.137 146.602C178.402 146.602 177.017 148.339 176.397 151.535L174.787 159.892H166.928L170.86 139.718H176.755L176.944 142.407C178.751 140.177 180.18 139.021 182.374 139.021C183.373 139.021 183.913 139.098 184.18 139.175L182.027 146.837" fill="#D61F26"/>
<path fill-rule="evenodd" clip-rule="evenodd" d="M206.59 139.716C203.121 148.728 200.043 155.308 196.961 159.857C192.497 166.518 188.567 168.06 184.522 168.06C183.328 168.06 182.061 167.744 181.441 167.44L182.677 161.625H185.372C186.72 161.625 187.294 161.082 188.182 159.89C186.68 154.464 185.946 146.879 186.023 139.716H193.92C193.767 142.961 193.793 146.213 193.997 149.456C194.037 150.34 194.108 151.188 194.185 152.039H194.224C194.573 151.224 194.954 150.421 195.303 149.533C196.617 146.323 197.76 143.046 198.729 139.716H206.59Z" fill="#D61F26"/>
<path fill-rule="evenodd" clip-rule="evenodd" d="M236.781 159.89H228.494L230.461 149.722H223.45L221.483 159.89H213.211L218.444 133.015H226.726L224.841 142.605H231.848L233.737 133.015H242.01L236.779 159.89" fill="#D61F26"/>
<path fill-rule="evenodd" clip-rule="evenodd" d="M253.1 144.339C251.289 144.339 250.255 145.837 249.829 147.571C253.41 147.571 254.493 146.454 254.493 145.527C254.493 144.876 253.909 144.339 253.1 144.339ZM248.98 152.421C248.936 152.662 248.912 152.906 248.907 153.151C248.907 154.385 249.756 154.809 251.983 154.809C253.988 154.809 256.838 154.306 258.493 153.732V159.391C256.376 160.16 253.063 160.581 250.403 160.581C244.167 160.581 241.164 158.886 241.164 153.23C241.164 147.678 243.743 139.021 253.678 139.021C259.993 139.021 261.883 141.872 261.883 144.878C261.883 148.765 258.529 152.074 248.98 152.421Z" fill="#D61F26"/>
<path fill-rule="evenodd" clip-rule="evenodd" d="M276.968 146.839C276.352 146.69 275.72 146.611 275.086 146.602C273.355 146.602 271.966 148.339 271.35 151.535L269.732 159.892H261.881L265.804 139.718H271.694L271.891 142.407C273.699 140.177 275.121 139.021 277.314 139.021C278.32 139.021 278.857 139.098 279.129 139.175L276.968 146.837" fill="#D61F26"/>
<path fill-rule="evenodd" clip-rule="evenodd" d="M289.873 145.221C286.716 145.221 285.867 150.036 285.867 152.192C285.867 153.923 286.597 154.422 288.028 154.422C291.14 154.422 291.951 149.607 291.951 147.417C291.951 145.724 291.26 145.221 289.873 145.221ZM286.943 160.581C280.822 160.581 277.822 157.962 277.822 152.727C277.822 146.912 280.707 139.021 290.875 139.021C296.961 139.021 300 141.716 300 146.878C300 152.808 297.111 160.581 286.943 160.581Z" fill="#D61F26"/>
<path fill-rule="evenodd" clip-rule="evenodd" d="M64.0107 153.497H62.4696L65.24 139.325H67.4007C70.6704 139.325 71.8642 141.259 71.8642 143.909C71.8642 149.266 68.8965 153.497 64.0107 153.497ZM71.3492 139.828L76.5822 134.806C74.5399 133.577 71.7379 133.015 68.2413 133.015H58.2311L53 159.892H63.4365C75.5601 159.892 80.4084 151.421 80.4084 142.607C80.4084 140.316 79.915 138.483 78.9639 137.062L71.3492 139.828Z" fill="#D61F26"/>
<path fill-rule="evenodd" clip-rule="evenodd" d="M210.604 67.7155L210.547 67.7486L200.316 71.9716L200.003 72.1178L197.509 83.6479C197.343 84.0423 196.844 84.1361 196.509 83.8078L189.056 74.8872L189.02 74.8597L146.99 93.1146C146.927 93.1422 146.857 93.1457 146.792 93.1243C146.727 93.103 146.671 93.0583 146.637 92.9986C146.602 92.9389 146.59 92.8685 146.603 92.8004C146.616 92.7324 146.653 92.6715 146.707 92.6291L183.041 65.1005L178.444 54.4753C178.215 53.9925 178.638 53.4767 179.199 53.6202H179.204L190.339 56.3951L198.984 48.6082C199.357 48.313 199.864 48.5254 199.959 48.9944L200.804 60.6926L210.773 66.5983C211.201 66.8742 211.138 67.5141 210.604 67.7155ZM205.524 34.2701C192.623 29.1451 178.436 32.993 169.683 42.8404L135.525 79.8799C135.065 80.3792 135.28 81.0053 135.839 81.0881L144.941 81.6535C145.669 81.7004 145.758 82.3349 145.393 82.7679L123.142 107.058C122.755 107.477 123.224 108.139 123.753 107.974L155.517 97.8149C156.188 97.5804 156.705 98.1873 156.422 98.7196L152.171 106.322C151.953 106.755 152.364 107.348 152.898 107.309L198.692 96.9846C209.634 95.2303 219.403 87.8378 223.745 76.6443C230.285 59.8458 222.115 40.8765 205.524 34.2701Z" fill="#D61F26"/>
</svg>
