<svg width="64" height="64" viewBox="0 0 64 64" fill="none" xmlns="http://www.w3.org/2000/svg">
<rect width="64" height="64" rx="32" fill="url(#paint0_linear_9754_173500)" fill-opacity="0.5"/>
<rect x="2.5" y="2.5" width="59" height="59" rx="29.5" stroke="black" stroke-opacity="0.1" stroke-width="5"/>
<path opacity="0.2" d="M48.5 18.5V29C48.5 47 32 51.5 32 51.5C32 51.5 15.5 47 15.5 29V18.5C15.5 18.1022 15.658 17.7206 15.9393 17.4393C16.2206 17.158 16.6022 17 17 17H47C47.3978 17 47.7794 17.158 48.0607 17.4393C48.342 17.7206 48.5 18.1022 48.5 18.5Z" fill="white"/>
<path d="M23.1069 29.9375C23.1805 29.7544 23.2895 29.5875 23.4277 29.4466C23.5659 29.3057 23.7306 29.1934 23.9123 29.1162C24.0939 29.0391 24.2891 28.9985 24.4865 28.9969C24.6838 28.9953 24.8796 29.0327 25.0625 29.1069L30.5 31.2838V26C30.5 25.6022 30.658 25.2206 30.9393 24.9393C31.2206 24.658 31.6022 24.5 32 24.5C32.3978 24.5 32.7794 24.658 33.0607 24.9393C33.342 25.2206 33.5 25.6022 33.5 26V31.2838L38.9375 29.1069C39.1204 29.033 39.3162 28.9959 39.5134 28.9977C39.7107 28.9994 39.9057 29.04 40.0873 29.1172C40.2689 29.1943 40.4336 29.3064 40.5718 29.4472C40.7101 29.5879 40.8193 29.7546 40.8931 29.9375C40.967 30.1204 41.0041 30.3162 41.0023 30.5134C41.0006 30.7107 40.96 30.9057 40.8828 31.0873C40.8057 31.2689 40.6936 31.4336 40.5528 31.5718C40.4121 31.7101 40.2454 31.8193 40.0625 31.8931L34.3794 34.1656L37.7 38.6C37.9387 38.9183 38.0412 39.3183 37.9849 39.7121C37.9287 40.106 37.7183 40.4613 37.4 40.7C37.0817 40.9387 36.6817 41.0412 36.2879 40.9849C35.894 40.9287 35.5387 40.7183 35.3 40.4L32 35.9994L28.7 40.4C28.5818 40.5576 28.4337 40.6903 28.2642 40.7907C28.0947 40.8911 27.9071 40.9571 27.7121 40.9849C27.5171 41.0128 27.3185 41.002 27.1277 40.9531C26.9369 40.9042 26.7576 40.8182 26.6 40.7C26.4424 40.5818 26.3096 40.4337 26.2093 40.2642C26.1089 40.0947 26.0429 39.9071 26.0151 39.7121C25.9872 39.5171 25.998 39.3186 26.0469 39.1277C26.0958 38.9369 26.1818 38.7576 26.3 38.6L29.6262 34.1656L23.9375 31.8931C23.7544 31.8195 23.5875 31.7105 23.4466 31.5723C23.3057 31.4341 23.1934 31.2694 23.1162 31.0877C23.0391 30.9061 22.9985 30.7109 22.9969 30.5135C22.9953 30.3162 23.0327 30.1204 23.1069 29.9375ZM50 18.5V29C50 38.885 45.215 44.8756 41.2006 48.1606C36.8769 51.6969 32.5756 52.8988 32.3881 52.9475C32.1303 53.0176 31.8584 53.0176 31.6006 52.9475C31.4131 52.8988 27.1175 51.6969 22.7881 48.1606C18.785 44.8756 14 38.885 14 29V18.5C14 17.7044 14.3161 16.9413 14.8787 16.3787C15.4413 15.8161 16.2044 15.5 17 15.5H47C47.7957 15.5 48.5587 15.8161 49.1213 16.3787C49.6839 16.9413 50 17.7044 50 18.5ZM47 18.5H17V29C17 35.9937 19.5912 41.6581 24.7006 45.8394C26.8761 47.6186 29.3466 49.0026 32 49.9287C34.6886 48.9862 37.19 47.5772 39.3894 45.7663C44.4388 41.5925 47 35.9506 47 29V18.5Z" fill="white"/>
<defs>
<linearGradient id="paint0_linear_9754_173500" x1="32" y1="0" x2="32" y2="64" gradientUnits="userSpaceOnUse">
<stop stop-color="#677FFF"/>
<stop offset="1" stop-color="#138AF2"/>
</linearGradient>
</defs>
</svg>
