<svg xmlns="http://www.w3.org/2000/svg" fill="none" viewBox="0 0 118 60" height="60" width="118">
  <g clip-path="url(#clip0_813_5610)">
    <path fill="white" d="M17.6286 26.2616C17.6286 28.2462 15.9902 29.8846 14.0055 29.8846C12.0209 29.8846 10.3825 28.2462 10.3825 26.2616C10.3825 24.2769 12.0209 22.6385 14.0055 22.6385C15.9902 22.6385 17.6286 24.2769 17.6286 26.2616ZM14.0055 31.2808C12.0209 31.2808 10.3825 32.9192 10.3825 34.9039C10.3825 36.8885 12.0209 38.5269 14.0055 38.5269C15.9902 38.5269 17.6286 36.8885 17.6286 34.9039C17.6286 32.9192 15.9902 31.2808 14.0055 31.2808ZM35.8248 30.5769C35.8248 40.2577 28.0017 48.0808 18.3209 48.0808C8.64015 48.0808 0.828613 40.2577 0.828613 30.5769C0.828613 20.8962 8.65169 13.0731 18.3325 13.0731C28.0132 13.0731 35.8363 20.8962 35.8363 30.5769H35.8248ZM31.1517 30.5769C31.1517 23.4577 25.4286 17.7346 18.3094 17.7346C11.1902 17.7346 5.46707 23.4577 5.46707 30.5769C5.46707 37.6962 11.1902 43.4192 18.3094 43.4192C25.4286 43.4192 31.1517 37.6962 31.1517 30.5769ZM22.6363 31.2808C20.6517 31.2808 19.0132 32.9192 19.0132 34.9039C19.0132 36.8885 20.6517 38.5269 22.6363 38.5269C24.6209 38.5269 26.2594 36.8885 26.2594 34.9039C26.2594 32.9192 24.6209 31.2808 22.6363 31.2808ZM22.6363 22.65C20.6517 22.65 19.0132 24.2885 19.0132 26.2731C19.0132 28.2577 20.6517 29.8962 22.6363 29.8962C24.6209 29.8962 26.2594 28.2577 26.2594 26.2731C26.2594 24.2885 24.6209 22.65 22.6363 22.65ZM82.8555 19.9616C82.9709 19.9616 83.0863 20.0769 83.2017 20.1923V23.9308C83.2017 24.1616 82.9709 24.2769 82.8555 24.2769H76.6709C76.4402 24.2769 76.3248 24.0462 76.3248 23.9308V20.3077C76.3248 20.0769 76.5555 19.9616 76.6709 19.9616H82.8555ZM82.7401 25.2116H70.8325C70.7171 25.2116 70.4863 25.3269 70.4863 25.5577L68.9748 31.3962L68.8594 31.7423L66.9902 25.5577C66.9902 25.4423 66.7594 25.2116 66.644 25.2116H61.9709C61.8555 25.2116 61.6248 25.3269 61.6248 25.5577L59.8709 31.3962L59.7555 31.7423L59.6402 31.3962L58.9363 28.4769L58.2325 25.5577C58.2325 25.4423 58.0017 25.2116 57.8863 25.2116H48.5517V20.1923C48.5517 20.0769 48.3209 19.8462 48.0902 19.9616L42.2517 21.8308C42.0209 21.8308 41.9055 21.9462 41.9055 22.1769V25.3269H40.394C40.2786 25.3269 40.0478 25.4423 40.0478 25.6731V30.1039C40.0478 30.2192 40.1632 30.45 40.394 30.45H41.9055V35.9308C41.9055 39.7846 44.0055 41.5269 47.8594 41.5269C49.4978 41.5269 51.0094 41.1808 52.0594 40.5923V35.9192C52.0594 35.6885 51.8286 35.5731 51.7132 35.6885C51.1248 35.9192 50.5478 36.0346 50.0748 36.0346C49.0248 36.0346 48.4363 35.5731 48.4363 34.3962V30.4269H51.8171C51.9325 30.4269 52.1632 30.3116 52.1632 30.0808V26.3423L56.594 41.0423C56.594 41.1577 56.8248 41.3885 56.9402 41.3885H61.844C61.9594 41.3885 62.1902 41.2731 62.1902 41.0423L64.2902 34.5116L65.3402 37.8923L66.2748 41.0423C66.2748 41.1577 66.5055 41.3885 66.6209 41.3885H71.5248C71.6402 41.3885 71.8709 41.2731 71.8709 41.0423L76.3017 26.3423V41.0423C76.3017 41.1577 76.4171 41.3885 76.6478 41.3885H82.6017C82.7171 41.3885 82.9478 41.2731 82.9478 41.0423V25.5231C82.9478 25.4077 82.8325 25.1769 82.7171 25.1769L82.7401 25.2116ZM90.5632 19.9616H84.6094C84.494 19.9616 84.2632 20.0769 84.2632 20.3077V40.9616C84.2632 41.0769 84.3786 41.3077 84.6094 41.3077H90.5632C90.6786 41.3077 90.9094 41.1923 90.9094 40.9616V20.1923C90.9094 20.0769 90.794 19.9616 90.5632 19.9616ZM98.5017 19.9616H92.3171C92.2017 19.9616 91.9709 20.0769 91.9709 20.3077V23.9308C91.9709 24.0462 92.0863 24.2769 92.3171 24.2769H98.5017C98.6171 24.2769 98.8478 24.1616 98.8478 23.9308V20.1923C98.8478 20.0769 98.7325 19.9616 98.5017 19.9616ZM98.3863 25.2116H92.4325C92.3171 25.2116 92.0863 25.3269 92.0863 25.5577V40.8462C92.0863 40.9616 92.2017 41.1923 92.4325 41.1923H98.3863C98.5017 41.1923 98.7325 41.0769 98.7325 40.8462V25.5577C98.7325 25.4423 98.6171 25.2116 98.3863 25.2116ZM117.171 33.15C117.171 37.5808 113.432 41.4346 108.182 41.4346C102.932 41.4346 99.3094 37.5808 99.3094 33.15C99.3094 28.7192 103.048 24.8654 108.298 24.8654C113.548 24.8654 117.171 28.7192 117.171 33.15ZM110.871 33.2654C110.871 31.6269 109.706 30.3462 108.298 30.4616C106.786 30.4616 105.725 31.7423 105.725 33.2654C105.725 34.7885 106.89 36.0692 108.298 36.0692C109.809 36.0692 110.871 34.7885 110.871 33.2654Z"></path>
  </g>
  <defs>
    <clipPath id="clip0_813_5610">
      <rect transform="translate(0.828613)" fill="white" height="60" width="116.342"></rect>
    </clipPath>
  </defs>
</svg>
