<svg xmlns="http://www.w3.org/2000/svg" fill="none" viewBox="0 0 140 60" height="60" width="140">
  <g clip-path="url(#clip0_813_5508)">
    <path fill="white" d="M136.205 23.3512V40.4986H140V23.3512H136.205ZM126.404 33.5622C126.415 33.2746 126.492 32.9869 126.625 32.7325C126.769 32.467 126.946 32.2347 127.167 32.0355C127.399 31.8364 127.665 31.6815 127.964 31.5709C128.284 31.4603 128.627 31.3939 128.97 31.405C129.712 31.405 130.265 31.6152 130.641 32.0466C131.006 32.467 131.194 32.9759 131.194 33.5622H126.404ZM133.041 30.4757C132.544 29.9447 131.924 29.5353 131.249 29.2588C130.552 28.9822 129.789 28.8384 128.959 28.8384C128.096 28.8384 127.289 28.9822 126.548 29.2698C125.829 29.5464 125.165 29.9557 124.612 30.4868C124.058 31.0288 123.616 31.6815 123.317 32.3896C122.996 33.1418 122.842 33.9715 122.842 34.9008C122.842 35.8301 123.008 36.7041 123.328 37.4453C123.66 38.1865 124.103 38.806 124.667 39.3149C125.242 39.8348 125.917 40.222 126.647 40.4765C127.411 40.742 128.207 40.8747 129.059 40.8747C130.209 40.8747 131.227 40.6645 132.09 40.2552C132.942 39.857 133.661 39.2485 134.192 38.4741L131.603 36.8368C131.338 37.1908 130.995 37.4785 130.608 37.6886C130.187 37.9099 129.701 38.0205 129.103 38.0205C128.771 38.0205 128.45 37.9652 128.141 37.8657C127.842 37.7661 127.554 37.6112 127.3 37.4231C127.057 37.2351 126.846 37.0138 126.68 36.7594C126.525 36.4939 126.426 36.2062 126.393 35.8965H134.601C134.612 35.7637 134.623 35.6199 134.623 35.465V35.0114C134.623 34.049 134.48 33.1861 134.203 32.4227C133.949 31.7037 133.55 31.051 133.041 30.4868V30.4757ZM104.179 35.9628C104.179 36.6819 103.979 37.2351 103.581 37.6555C103.172 38.0758 102.597 38.275 101.844 38.275C101.656 38.275 101.468 38.2529 101.269 38.2197C101.081 38.1865 100.904 38.1201 100.749 38.0316C100.594 37.9431 100.473 37.8214 100.373 37.6665C100.273 37.5006 100.218 37.3125 100.229 37.1244C100.229 36.7926 100.34 36.5271 100.55 36.3169C100.76 36.1067 101.037 35.9518 101.358 35.8522C101.689 35.7416 102.055 35.6752 102.475 35.642C102.884 35.5978 103.305 35.5867 103.714 35.5867H104.19V35.9739L104.179 35.9628ZM107.309 32.1351C107.121 31.3828 106.823 30.7744 106.413 30.2766C106.004 29.7898 105.473 29.4247 104.809 29.1924C104.145 28.949 103.349 28.8384 102.386 28.8384C101.457 28.8384 100.539 29.0043 99.665 29.3141C98.8021 29.6239 98.0055 30.1106 97.3418 30.7412L99.2224 32.7546C99.5986 32.4117 100.03 32.1462 100.484 31.936C100.959 31.7147 101.49 31.593 102.01 31.593C102.586 31.593 103.072 31.7258 103.471 31.9913C103.858 32.2568 104.057 32.6661 104.057 33.2303V33.4184C103.216 33.4184 102.375 33.4627 101.535 33.5512C100.672 33.6397 99.8862 33.8277 99.1782 34.0932C98.4812 34.3587 97.906 34.7459 97.4524 35.2438C96.9988 35.7416 96.7886 36.4054 96.7886 37.2129C96.7886 37.8767 96.9103 38.4409 97.1758 38.8945C97.4192 39.3259 97.7511 39.7021 98.1604 39.9787C98.5587 40.2552 99.0012 40.4544 99.488 40.565C99.9526 40.6867 100.417 40.742 100.893 40.742C101.546 40.742 102.187 40.6203 102.785 40.3548C103.371 40.1003 103.802 39.7353 104.09 39.2706H104.156V40.4765H107.564V34.7791C107.564 33.7503 107.475 32.8653 107.287 32.113L107.309 32.1351ZM91.9431 35.8854C91.8325 36.2394 91.6555 36.5492 91.4342 36.8257C91.2019 37.1023 90.9143 37.3236 90.5934 37.4785C90.2616 37.6444 89.8744 37.7329 89.4318 37.7329C88.9893 37.7329 88.6243 37.6555 88.2924 37.4785C87.9605 37.3125 87.6729 37.0913 87.4405 36.8257C87.2082 36.5492 87.0202 36.2284 86.8985 35.8965C86.7768 35.5535 86.7104 35.1885 86.7104 34.8234C86.7104 34.4583 86.7768 34.1043 86.8985 33.7613C87.0312 33.4073 87.2193 33.0976 87.4405 32.8321C87.6839 32.5666 87.9605 32.3453 88.2924 32.1683C88.6243 32.0024 89.0115 31.9249 89.4318 31.9249C89.8522 31.9249 90.2505 32.0024 90.5824 32.1683C90.9143 32.3342 91.2019 32.5555 91.4232 32.821C91.6555 33.0865 91.8214 33.3963 91.932 33.7392C92.0427 34.0932 92.109 34.4362 92.098 34.8013C92.098 35.1663 92.0427 35.5203 91.932 35.8854H91.9431ZM94.2552 30.6527C93.7906 30.1106 93.2264 29.6681 92.5737 29.3583C91.9099 29.0375 91.1687 28.8826 90.3501 28.8826C89.5203 28.8826 88.8123 29.0375 88.2371 29.3583C87.6618 29.6792 87.2082 30.0332 86.8985 30.3983H86.8542V23.3402H83.126V40.4875H86.5555V39.0162H86.5998C86.9648 39.5915 87.4848 40.034 88.1596 40.3437C88.8345 40.6535 89.5535 40.8084 90.3058 40.8084C91.1576 40.8084 91.9099 40.6424 92.5848 40.3105C93.2375 39.9897 93.8127 39.5361 94.2774 38.983C94.742 38.4188 95.1071 37.7661 95.3283 37.0691C95.5717 36.339 95.6934 35.5867 95.6934 34.8013C95.6934 34.0158 95.5717 33.2635 95.3173 32.5444C95.085 31.8475 94.7199 31.2058 94.2442 30.6527H94.2552ZM117.974 35.8854C117.863 36.2394 117.686 36.5492 117.465 36.8257C117.233 37.1023 116.945 37.3236 116.624 37.4785C116.292 37.6444 115.905 37.7329 115.474 37.7329C115.042 37.7329 114.666 37.6555 114.334 37.4785C114.002 37.3125 113.715 37.0913 113.482 36.8257C113.25 36.5492 113.062 36.2284 112.94 35.8965C112.819 35.5535 112.752 35.1885 112.752 34.8234C112.752 34.4583 112.819 34.1043 112.94 33.7613C113.073 33.4073 113.261 33.0976 113.482 32.8321C113.715 32.5666 114.002 32.3453 114.334 32.1683C114.666 32.0024 115.053 31.9249 115.474 31.9249C115.894 31.9249 116.292 32.0024 116.624 32.1683C116.956 32.3342 117.244 32.5555 117.465 32.821C117.686 33.0865 117.863 33.3963 117.974 33.7392C118.085 34.0932 118.151 34.4362 118.14 34.8013C118.14 35.1663 118.085 35.5203 117.974 35.8854ZM120.286 30.6527C119.821 30.1106 119.257 29.6681 118.605 29.3583C117.941 29.0375 117.2 28.8826 116.381 28.8826C115.551 28.8826 114.843 29.0375 114.268 29.3583C113.693 29.6792 113.239 30.0332 112.929 30.3983H112.885V23.3402H109.157V40.4875H112.586V39.0162H112.631C112.996 39.5915 113.516 40.034 114.19 40.3437C114.865 40.6535 115.584 40.8084 116.337 40.8084C117.188 40.8084 117.941 40.6424 118.616 40.3105C119.268 39.9897 119.844 39.5361 120.308 38.983C120.773 38.4188 121.138 37.7661 121.359 37.0691C121.603 36.339 121.724 35.5867 121.724 34.8013C121.724 34.0158 121.603 33.2635 121.348 32.5444C121.116 31.8475 120.751 31.2058 120.275 30.6527H120.286ZM64.9166 34.06C64.9166 34.5026 64.8613 34.9119 64.7618 35.3101C64.6622 35.6973 64.4852 36.0514 64.2418 36.3611C63.9984 36.6819 63.6665 36.9364 63.3015 37.1023C62.9143 37.2793 62.4496 37.3789 61.9075 37.3678C61.3544 37.3678 60.9008 37.2793 60.5136 37.0913C60.1486 36.9253 59.8277 36.6709 59.5844 36.35C59.341 36.0292 59.164 35.6752 59.0644 35.2991C58.9538 34.8898 58.8985 34.4694 58.8985 34.049V24.3579H55.0375V34.3587C55.0375 35.3323 55.1924 36.2062 55.5132 37.0028C55.8119 37.7772 56.2766 38.463 56.874 39.0383C57.4603 39.6025 58.1794 40.045 59.0312 40.3659C59.8831 40.6756 60.8345 40.8416 61.8965 40.8416C62.9585 40.8416 63.8989 40.6756 64.7507 40.3659C65.6025 40.045 66.3327 39.6025 66.9411 39.0383C67.5496 38.463 68.0253 37.7661 68.335 37.0028C68.6669 36.2062 68.8218 35.3212 68.8218 34.3587V24.3579H64.9388V34.049L64.9166 34.06ZM80.1723 30.4757C79.6966 29.9447 79.1102 29.5353 78.4465 29.2588C77.7827 28.9822 76.7539 28.8384 75.9573 28.8384C75.1608 28.8384 74.143 28.9822 73.4682 29.2588C72.8155 29.5353 72.2181 29.9447 71.7424 30.4757C71.2556 31.0067 70.8906 31.6483 70.614 32.4117C70.3485 33.164 70.3595 34.0269 70.3595 35.0004V40.5097H74.132V34.3145C74.1541 33.8388 74.3532 33.3963 74.6851 33.0755C75.0281 32.7436 75.4816 32.5666 75.9463 32.5666C76.422 32.5666 76.8755 32.7546 77.2074 33.0755C77.5504 33.4073 77.7495 33.8498 77.7606 34.3256V40.5207H81.533V35.0114C81.533 34.0379 81.5441 33.1861 81.2785 32.4227C81.013 31.6594 80.6369 31.0288 80.1501 30.4978L80.1723 30.4757ZM43.9415 46.3951H37.3481V28.8163C37.3481 27.9976 37.1711 27.2011 36.8171 26.4599C36.4631 25.7297 35.9652 25.077 35.3347 24.5571C34.7041 24.0371 33.9629 23.6721 33.1774 23.4729C32.3919 23.2738 31.5622 23.2627 30.7657 23.4176C31.4848 22.6875 32.3366 22.1011 33.277 21.7139C34.2173 21.3157 35.2351 21.1165 36.2529 21.1165C37.2596 21.1165 38.2663 21.3157 39.1956 21.7029C40.1249 22.0901 40.9767 22.6543 41.6958 23.3734C42.4149 24.0924 42.9791 24.9332 43.3663 25.8736C43.7535 26.8028 43.9526 27.8096 43.9526 28.8163V46.3951H43.9415ZM26.3627 28.8163V35.4097C26.3627 36.6819 26.0529 37.921 25.4445 39.0383C24.8471 40.1557 23.9842 41.1071 22.9222 41.804C21.8712 42.501 20.6543 42.9324 19.3931 43.0541C18.132 43.1758 16.8597 42.9767 15.6871 42.4899C14.7467 42.0917 13.8949 41.5164 13.1758 40.7862C13.9723 40.9522 14.8021 40.9301 15.5875 40.7309C16.373 40.5318 17.1142 40.1667 17.7448 39.6468C18.3753 39.1268 18.8842 38.4852 19.2272 37.744C19.5812 37.0138 19.7582 36.2062 19.7582 35.3876V28.7941C19.7582 22.1233 25.1679 16.7135 31.8388 16.7135C34.7704 16.7135 37.4587 17.7534 39.5496 19.4903C38.4876 19.1031 37.3702 18.915 36.2307 18.904C30.7657 18.904 26.3406 23.3291 26.3406 28.7941L26.3627 28.8163ZM14.2821 47.4903C7.61122 47.4903 2.2015 42.0806 2.2015 35.4097V17.8198H8.78388V35.3986C8.78388 40.8637 13.209 45.2888 18.674 45.2888C19.8356 45.2888 20.953 45.0786 21.9818 44.7025C19.8135 46.5057 17.0921 47.4903 14.271 47.4792L14.2821 47.4903ZM31.8609 14.5231C23.9731 14.5231 17.5788 20.9174 17.5788 28.8052V35.3986C17.5788 36.2726 17.2359 37.1134 16.6164 37.7329C15.9968 38.3524 15.1561 38.6954 14.2821 38.6954C13.4081 38.6954 12.5674 38.3524 11.9478 37.7329C11.3283 37.1134 10.9854 36.2726 10.9854 35.3986V15.6294H0V35.3986C0 43.2864 6.39431 49.6807 14.2821 49.6807C22.1699 49.6807 27.9889 43.8285 28.5089 36.4164C28.5421 36.0845 28.5642 35.7416 28.5642 35.4097V28.8163C28.5642 27.9423 28.9072 27.1015 29.5267 26.482C30.1462 25.8625 30.987 25.5195 31.8609 25.5195C32.7349 25.5195 33.5757 25.8625 34.1952 26.482C34.8147 27.1015 35.1576 27.9423 35.1576 28.8163V48.5855H46.143V28.8052C46.143 28.4623 46.1209 28.1304 46.0877 27.7985C45.5678 20.3864 39.4058 14.5342 31.8609 14.5342V14.5231Z" clip-rule="evenodd" fill-rule="evenodd"></path>
  </g>
  <defs>
    <clipPath id="clip0_813_5508">
      <rect fill="white" height="60" width="140"></rect>
    </clipPath>
  </defs>
</svg>
