<svg width="48" height="49" viewBox="0 0 48 49" fill="none" xmlns="http://www.w3.org/2000/svg">
<g clip-path="url(#clip0_64_5307)">
<path d="M24.0009 48.7791C34.5176 48.7791 40.3639 48.7791 44.1824 44.9606C48.0009 41.1421 48.0009 35.2957 48.0009 24.7791C48.0009 14.2624 48.0009 8.41603 44.1824 4.59754C40.3639 0.779052 34.5176 0.779053 24.0009 0.779053C13.4842 0.779053 7.63789 0.779052 3.8194 4.59754C0.000914892 8.41603 0.000915527 14.2624 0.000915527 24.7791C0.000915527 35.2957 0.000914892 41.1421 3.8194 44.9606C7.63789 48.7791 13.4842 48.7791 24.0009 48.7791Z" fill="url(#paint0_linear_64_5307)"/>
<g filter="url(#filter0_i_64_5307)">
<path fill-rule="evenodd" clip-rule="evenodd" d="M39.9633 24.7791C39.9633 33.6155 32.8081 40.7791 23.982 40.7791C15.1558 40.7791 8.00067 33.6155 8.00067 24.7791C8.00067 15.9426 15.1558 8.77905 23.982 8.77905C32.8081 8.77905 39.9633 15.9426 39.9633 24.7791Z" fill="#FF492C"/>
<path fill-rule="evenodd" clip-rule="evenodd" d="M30.8989 21.0359H28.1699C28.2441 20.6065 28.5075 20.3671 29.0438 20.0951L29.5469 19.8385C30.4457 19.3764 30.9238 18.8567 30.9238 18.0062C30.9238 17.4699 30.7174 17.0487 30.305 16.7435C29.901 16.4375 29.4063 16.2891 28.838 16.2891C28.3841 16.2891 27.9718 16.4049 27.5927 16.6443C27.2213 16.8753 26.9413 17.1723 26.7681 17.5441L27.5595 18.3364C27.8644 17.7175 28.3099 17.4116 28.8955 17.4116C29.3903 17.4116 29.6952 17.6676 29.6952 18.0228C29.6952 18.3198 29.5469 18.5681 28.978 18.8567L28.6564 19.0135C27.9552 19.3687 27.4687 19.7726 27.1887 20.2353C26.9081 20.6891 26.7681 21.2753 26.7681 21.9767V22.1668H30.8989V21.0359Z" fill="white"/>
<path fill-rule="evenodd" clip-rule="evenodd" d="M30.534 23.4731H26.0145L23.7554 27.3912H28.2743L30.534 31.3099L32.7938 27.3912L30.534 23.4731Z" fill="white"/>
<path fill-rule="evenodd" clip-rule="evenodd" d="M24.1441 30.0035C21.2668 30.0035 18.9259 27.6598 18.9259 24.7791C18.9259 21.8985 21.2668 19.5548 24.1441 19.5548L25.9308 15.8115C25.3529 15.6969 24.7559 15.6361 24.1441 15.6361C19.1004 15.6361 15.0117 19.7295 15.0117 24.7791C15.0117 29.8287 19.1004 33.9222 24.1441 33.9222C26.1552 33.9222 28.0135 33.2707 29.5221 32.1679L27.5437 28.7375C26.6302 29.5254 25.4418 30.0035 24.1441 30.0035Z" fill="white"/>
</g>
<g style="mix-blend-mode:overlay">
<path d="M24.0009 48.7791C34.5176 48.7791 40.3639 48.7791 44.1824 44.9606C48.0009 41.1421 48.0009 35.2957 48.0009 24.7791C48.0009 14.2624 48.0009 8.41603 44.1824 4.59754C40.3639 0.779052 34.5176 0.779053 24.0009 0.779053C13.4842 0.779053 7.63789 0.779052 3.8194 4.59754C0.000914892 8.41603 0.000915527 14.2624 0.000915527 24.7791C0.000915527 35.2957 0.000914892 41.1421 3.8194 44.9606C7.63789 48.7791 13.4842 48.7791 24.0009 48.7791Z" fill="url(#paint1_linear_64_5307)"/>
</g>
<g style="mix-blend-mode:overlay">
<path d="M24.0009 48.7791C34.5176 48.7791 40.3639 48.7791 44.1824 44.9606C48.0009 41.1421 48.0009 35.2957 48.0009 24.7791C48.0009 14.2624 48.0009 8.41603 44.1824 4.59754C40.3639 0.779052 34.5176 0.779053 24.0009 0.779053C13.4842 0.779053 7.63789 0.779052 3.8194 4.59754C0.000914812 8.41603 0.000915527 14.2624 0.000915527 24.7791C0.000915527 35.2957 0.000914812 41.1421 3.8194 44.9606C7.63789 48.7791 13.4842 48.7791 24.0009 48.7791Z" fill="url(#paint2_linear_64_5307)"/>
</g>
<g style="mix-blend-mode:soft-light" filter="url(#filter1_f_64_5307)">
<path d="M43.9771 44.7553C42.1277 46.6047 39.7793 47.5424 36.5614 48.0145C33.3337 48.488 29.2675 48.4887 24.0009 48.4887C18.7343 48.4887 14.6682 48.488 11.4405 48.0145C8.22258 47.5424 5.87415 46.6047 4.02469 44.7553C2.17523 42.9058 1.23756 40.5574 0.765473 37.3395C0.291947 34.1118 0.291238 30.0457 0.291238 24.7791C0.291238 19.5124 0.291947 15.4463 0.765473 12.2186C1.23756 9.00072 2.17523 6.65228 4.02469 4.80282C5.87415 2.95337 8.22258 2.0157 11.4405 1.54361C14.6682 1.07008 18.7343 1.06938 24.0009 1.06938C29.2675 1.06938 33.3337 1.07008 36.5614 1.54361C39.7793 2.0157 42.1277 2.95337 43.9771 4.80282C45.8266 6.65228 46.7643 9.00072 47.2364 12.2186C47.7099 15.4463 47.7106 19.5124 47.7106 24.7791C47.7106 30.0457 47.7099 34.1118 47.2364 37.3395C46.7643 40.5574 45.8266 42.9058 43.9771 44.7553Z" stroke="url(#paint3_linear_64_5307)" stroke-width="0.580645"/>
</g>
<g style="mix-blend-mode:soft-light" filter="url(#filter2_f_64_5307)">
<path d="M43.9087 44.6869C42.0792 46.5164 39.7533 47.4484 36.5473 47.9187C33.3282 48.391 29.2703 48.392 24.0009 48.392C18.7316 48.392 14.6736 48.391 11.4545 47.9187C8.24848 47.4484 5.92265 46.5164 4.09312 44.6869C2.26359 42.8573 1.33157 40.5315 0.861223 37.3254C0.388957 34.1063 0.388012 30.0484 0.388012 24.7791C0.388012 19.5097 0.388957 15.4518 0.861223 12.2327C1.33157 9.02662 2.26359 6.70078 4.09312 4.87125C5.92265 3.04173 8.24849 2.10971 11.4545 1.63936C14.6736 1.16709 18.7316 1.16615 24.0009 1.16615C29.2703 1.16615 33.3282 1.16709 36.5473 1.63936C39.7533 2.10971 42.0792 3.04173 43.9087 4.87125C45.7382 6.70078 46.6703 9.02662 47.1406 12.2327C47.6129 15.4518 47.6138 19.5097 47.6138 24.7791C47.6138 30.0484 47.6129 34.1063 47.1406 37.3254C46.6703 40.5315 45.7382 42.8573 43.9087 44.6869Z" stroke="url(#paint4_linear_64_5307)" stroke-width="0.774194"/>
</g>
</g>
<defs>
<filter id="filter0_i_64_5307" x="6.58151" y="7.35962" width="34.8387" height="35.2258" filterUnits="userSpaceOnUse" color-interpolation-filters="sRGB">
<feFlood flood-opacity="0" result="BackgroundImageFix"/>
<feBlend mode="normal" in="SourceGraphic" in2="BackgroundImageFix" result="shape"/>
<feColorMatrix in="SourceAlpha" type="matrix" values="0 0 0 0 0 0 0 0 0 0 0 0 0 0 0 0 0 0 127 0" result="hardAlpha"/>
<feOffset dy="0.387097"/>
<feGaussianBlur stdDeviation="0.387097"/>
<feComposite in2="hardAlpha" operator="arithmetic" k2="-1" k3="1"/>
<feColorMatrix type="matrix" values="0 0 0 0 0 0 0 0 0 0 0 0 0 0 0 0 0 0 0.16 0"/>
<feBlend mode="normal" in2="shape" result="effect1_innerShadow_64_5307"/>
</filter>
<filter id="filter1_f_64_5307" x="-0.386181" y="0.391956" width="48.7742" height="48.7742" filterUnits="userSpaceOnUse" color-interpolation-filters="sRGB">
<feFlood flood-opacity="0" result="BackgroundImageFix"/>
<feBlend mode="normal" in="SourceGraphic" in2="BackgroundImageFix" result="shape"/>
<feGaussianBlur stdDeviation="0.193548" result="effect1_foregroundBlur_64_5307"/>
</filter>
<filter id="filter2_f_64_5307" x="-1.16037" y="-0.382238" width="50.3226" height="50.3226" filterUnits="userSpaceOnUse" color-interpolation-filters="sRGB">
<feFlood flood-opacity="0" result="BackgroundImageFix"/>
<feBlend mode="normal" in="SourceGraphic" in2="BackgroundImageFix" result="shape"/>
<feGaussianBlur stdDeviation="0.580645" result="effect1_foregroundBlur_64_5307"/>
</filter>
<linearGradient id="paint0_linear_64_5307" x1="24.0009" y1="0.779053" x2="24.0009" y2="48.7791" gradientUnits="userSpaceOnUse">
<stop stop-color="#312C3C"/>
<stop offset="1" stop-color="#2F134D"/>
</linearGradient>
<linearGradient id="paint1_linear_64_5307" x1="-0.562048" y1="0.779053" x2="12.5784" y2="57.0508" gradientUnits="userSpaceOnUse">
<stop stop-opacity="0"/>
<stop offset="0.605667" stop-opacity="0.0781197"/>
<stop offset="1" stop-opacity="0.26"/>
</linearGradient>
<linearGradient id="paint2_linear_64_5307" x1="-0.562048" y1="0.779053" x2="12.5784" y2="57.0508" gradientUnits="userSpaceOnUse">
<stop offset="0.140625" stop-color="white" stop-opacity="0.26"/>
<stop offset="0.640625" stop-color="white" stop-opacity="0.0781197"/>
<stop offset="1" stop-color="white" stop-opacity="0"/>
</linearGradient>
<linearGradient id="paint3_linear_64_5307" x1="24.0009" y1="48.7791" x2="24.0009" y2="41.2791" gradientUnits="userSpaceOnUse">
<stop/>
<stop offset="1" stop-opacity="0"/>
</linearGradient>
<linearGradient id="paint4_linear_64_5307" x1="24.0009" y1="0.779053" x2="24.0009" y2="24.7791" gradientUnits="userSpaceOnUse">
<stop stop-color="white"/>
<stop offset="1" stop-color="white" stop-opacity="0"/>
</linearGradient>
<clipPath id="clip0_64_5307">
<rect width="48" height="48" fill="white" transform="translate(0.000457764 0.779053)"/>
</clipPath>
</defs>
</svg>
