<svg width="48" height="49" viewBox="0 0 48 49" fill="none" xmlns="http://www.w3.org/2000/svg">
<g clip-path="url(#clip0_64_5293)">
<path d="M24.0009 48.7791C34.5176 48.7791 40.3639 48.7791 44.1824 44.9606C48.0009 41.1421 48.0009 35.2957 48.0009 24.7791C48.0009 14.2624 48.0009 8.41603 44.1824 4.59754C40.3639 0.779052 34.5176 0.779053 24.0009 0.779053C13.4842 0.779053 7.63786 0.779052 3.81937 4.59754C0.000884374 8.41603 0.00088501 14.2624 0.00088501 24.7791C0.00088501 35.2957 0.000884374 41.1421 3.81937 44.9606C7.63786 48.7791 13.4842 48.7791 24.0009 48.7791Z" fill="url(#paint0_linear_64_5293)"/>
<g clip-path="url(#clip1_64_5293)" filter="url(#filter0_i_64_5293)">
<g clip-path="url(#clip2_64_5293)">
<path d="M24.0009 7.35962C14.3825 7.35962 6.5815 15.1591 6.5815 24.779C6.5815 32.4754 11.5721 39.0048 18.4949 41.3085C19.3644 41.4696 19.646 40.9296 19.646 40.4709V37.228C14.8005 38.2819 13.7917 35.1725 13.7917 35.1725C12.9991 33.1591 11.8567 32.6235 11.8567 32.6235C10.2759 31.542 11.9771 31.5653 11.9771 31.5653C13.7263 31.6872 14.6467 33.3609 14.6467 33.3609C16.1999 36.0232 18.7213 35.2538 19.7157 34.8082C19.871 33.6832 20.3225 32.9138 20.8218 32.4798C16.9533 32.037 12.8859 30.5433 12.8859 23.8703C12.8859 21.9672 13.5667 20.414 14.68 19.1946C14.5 18.7548 13.9034 16.9824 14.8499 14.5843C14.8499 14.5843 16.3131 14.1169 19.6417 16.3698C21.0309 15.9837 22.5202 15.7906 24.0009 15.7833C25.4815 15.7906 26.9723 15.9837 28.3644 16.3698C31.69 14.1169 33.1504 14.5843 33.1504 14.5843C34.0983 16.9838 33.5017 18.7562 33.3217 19.1946C34.4394 20.414 35.1144 21.9686 35.1144 23.8703C35.1144 30.5607 31.0397 32.0341 27.161 32.4653C27.7852 33.0053 28.3557 34.0649 28.3557 35.6907V40.4709C28.3557 40.934 28.6344 41.4783 29.5184 41.307C36.4354 39.0004 41.4202 32.4725 41.4202 24.779C41.4202 15.1591 33.6207 7.35962 24.0009 7.35962Z" fill="url(#paint1_linear_64_5293)"/>
</g>
</g>
<g style="mix-blend-mode:overlay">
<path d="M24.0009 48.7791C34.5176 48.7791 40.3639 48.7791 44.1824 44.9606C48.0009 41.1421 48.0009 35.2957 48.0009 24.7791C48.0009 14.2624 48.0009 8.41603 44.1824 4.59754C40.3639 0.779052 34.5176 0.779053 24.0009 0.779053C13.4842 0.779053 7.63786 0.779052 3.81937 4.59754C0.000884374 8.41603 0.00088501 14.2624 0.00088501 24.7791C0.00088501 35.2957 0.000884374 41.1421 3.81937 44.9606C7.63786 48.7791 13.4842 48.7791 24.0009 48.7791Z" fill="url(#paint2_linear_64_5293)"/>
</g>
<g style="mix-blend-mode:overlay">
<path d="M24.0009 48.7791C34.5176 48.7791 40.3639 48.7791 44.1824 44.9606C48.0009 41.1421 48.0009 35.2957 48.0009 24.7791C48.0009 14.2624 48.0009 8.41603 44.1824 4.59754C40.3639 0.779052 34.5176 0.779053 24.0009 0.779053C13.4842 0.779053 7.63786 0.779052 3.81937 4.59754C0.000884271 8.41603 0.00088501 14.2624 0.00088501 24.7791C0.00088501 35.2957 0.000884271 41.1421 3.81937 44.9606C7.63786 48.7791 13.4842 48.7791 24.0009 48.7791Z" fill="url(#paint3_linear_64_5293)"/>
</g>
<g style="mix-blend-mode:soft-light" filter="url(#filter1_f_64_5293)">
<path d="M43.9771 44.7553C42.1277 46.6047 39.7792 47.5424 36.5613 48.0145C33.3336 48.488 29.2675 48.4887 24.0009 48.4887C18.7343 48.4887 14.6681 48.488 11.4405 48.0145C8.22255 47.5424 5.87412 46.6047 4.02466 44.7553C2.1752 42.9058 1.23753 40.5574 0.765443 37.3395C0.291916 34.1118 0.291208 30.0457 0.291208 24.7791C0.291208 19.5124 0.291916 15.4463 0.765443 12.2186C1.23753 9.00072 2.1752 6.65228 4.02466 4.80282C5.87412 2.95337 8.22255 2.0157 11.4405 1.54361C14.6681 1.07008 18.7343 1.06938 24.0009 1.06938C29.2675 1.06938 33.3336 1.07008 36.5613 1.54361C39.7792 2.0157 42.1277 2.95337 43.9771 4.80282C45.8266 6.65228 46.7642 9.00072 47.2363 12.2186C47.7099 15.4463 47.7106 19.5124 47.7106 24.7791C47.7106 30.0457 47.7099 34.1118 47.2363 37.3395C46.7642 40.5574 45.8266 42.9058 43.9771 44.7553Z" stroke="url(#paint4_linear_64_5293)" stroke-width="0.580645"/>
</g>
<g style="mix-blend-mode:soft-light" filter="url(#filter2_f_64_5293)">
<path d="M43.9087 44.6869C42.0792 46.5164 39.7533 47.4484 36.5473 47.9187C33.3282 48.391 29.2702 48.392 24.0009 48.392C18.7315 48.392 14.6736 48.391 11.4545 47.9187C8.24845 47.4484 5.92262 46.5164 4.09309 44.6869C2.26356 42.8573 1.33154 40.5315 0.861192 37.3254C0.388926 34.1063 0.387982 30.0484 0.387982 24.7791C0.387982 19.5097 0.388926 15.4518 0.861192 12.2327C1.33154 9.02662 2.26356 6.70078 4.09309 4.87125C5.92262 3.04173 8.24846 2.10971 11.4545 1.63936C14.6736 1.16709 18.7315 1.16615 24.0009 1.16615C29.2702 1.16615 33.3282 1.16709 36.5473 1.63936C39.7533 2.10971 42.0792 3.04173 43.9087 4.87125C45.7382 6.70078 46.6702 9.02662 47.1406 12.2327C47.6128 15.4518 47.6138 19.5097 47.6138 24.7791C47.6138 30.0484 47.6128 34.1063 47.1406 37.3254C46.6702 40.5315 45.7382 42.8573 43.9087 44.6869Z" stroke="url(#paint5_linear_64_5293)" stroke-width="0.774194"/>
</g>
</g>
<defs>
<filter id="filter0_i_64_5293" x="6.5815" y="7.35962" width="34.8387" height="35.2258" filterUnits="userSpaceOnUse" color-interpolation-filters="sRGB">
<feFlood flood-opacity="0" result="BackgroundImageFix"/>
<feBlend mode="normal" in="SourceGraphic" in2="BackgroundImageFix" result="shape"/>
<feColorMatrix in="SourceAlpha" type="matrix" values="0 0 0 0 0 0 0 0 0 0 0 0 0 0 0 0 0 0 127 0" result="hardAlpha"/>
<feOffset dy="0.387097"/>
<feGaussianBlur stdDeviation="0.387097"/>
<feComposite in2="hardAlpha" operator="arithmetic" k2="-1" k3="1"/>
<feColorMatrix type="matrix" values="0 0 0 0 0 0 0 0 0 0 0 0 0 0 0 0 0 0 0.16 0"/>
<feBlend mode="normal" in2="shape" result="effect1_innerShadow_64_5293"/>
</filter>
<filter id="filter1_f_64_5293" x="-0.386212" y="0.391956" width="48.7742" height="48.7742" filterUnits="userSpaceOnUse" color-interpolation-filters="sRGB">
<feFlood flood-opacity="0" result="BackgroundImageFix"/>
<feBlend mode="normal" in="SourceGraphic" in2="BackgroundImageFix" result="shape"/>
<feGaussianBlur stdDeviation="0.193548" result="effect1_foregroundBlur_64_5293"/>
</filter>
<filter id="filter2_f_64_5293" x="-1.16041" y="-0.382238" width="50.3226" height="50.3226" filterUnits="userSpaceOnUse" color-interpolation-filters="sRGB">
<feFlood flood-opacity="0" result="BackgroundImageFix"/>
<feBlend mode="normal" in="SourceGraphic" in2="BackgroundImageFix" result="shape"/>
<feGaussianBlur stdDeviation="0.580645" result="effect1_foregroundBlur_64_5293"/>
</filter>
<linearGradient id="paint0_linear_64_5293" x1="24.0009" y1="0.779053" x2="24.0009" y2="48.7791" gradientUnits="userSpaceOnUse">
<stop stop-color="#312C3C"/>
<stop offset="1" stop-color="#340F1E"/>
</linearGradient>
<linearGradient id="paint1_linear_64_5293" x1="24.0009" y1="7.35962" x2="24.0009" y2="41.3393" gradientUnits="userSpaceOnUse">
<stop stop-color="#979394"/>
<stop offset="1" stop-color="#683F54"/>
</linearGradient>
<linearGradient id="paint2_linear_64_5293" x1="-0.562078" y1="0.779053" x2="12.5783" y2="57.0508" gradientUnits="userSpaceOnUse">
<stop stop-opacity="0"/>
<stop offset="0.605667" stop-opacity="0.0781197"/>
<stop offset="1" stop-opacity="0.26"/>
</linearGradient>
<linearGradient id="paint3_linear_64_5293" x1="-0.562078" y1="0.779053" x2="12.5783" y2="57.0508" gradientUnits="userSpaceOnUse">
<stop offset="0.140625" stop-color="white" stop-opacity="0.26"/>
<stop offset="0.640625" stop-color="white" stop-opacity="0.0781197"/>
<stop offset="1" stop-color="white" stop-opacity="0"/>
</linearGradient>
<linearGradient id="paint4_linear_64_5293" x1="24.0009" y1="48.7791" x2="24.0009" y2="41.2791" gradientUnits="userSpaceOnUse">
<stop/>
<stop offset="1" stop-opacity="0"/>
</linearGradient>
<linearGradient id="paint5_linear_64_5293" x1="24.0009" y1="0.779053" x2="24.0009" y2="24.7791" gradientUnits="userSpaceOnUse">
<stop stop-color="white"/>
<stop offset="1" stop-color="white" stop-opacity="0"/>
</linearGradient>
<clipPath id="clip0_64_5293">
<rect width="48" height="48" fill="white" transform="translate(0.000442505 0.779053)"/>
</clipPath>
<clipPath id="clip1_64_5293">
<rect width="34.8387" height="34.8387" fill="white" transform="translate(6.5815 7.35962)"/>
</clipPath>
<clipPath id="clip2_64_5293">
<rect width="34.8387" height="34.8387" fill="white" transform="translate(6.5815 7.35962)"/>
</clipPath>
</defs>
</svg>
