<svg xmlns="http://www.w3.org/2000/svg" fill="none" viewBox="0 0 126 24" height="24" width="126">
  <path fill="#F8F3F4" d="M83.2669 20.656C84.9497 20.7205 86.5032 20.054 87.7004 18.9248L89.9226 21.3227C88.1859 23.1185 85.7587 24.0755 83.2669 23.9571C77.8733 23.9571 74.3998 20.3657 74.3998 15.5162C74.3998 10.7314 78.0567 7.07539 82.7923 7.07539C88.1859 7.07539 91.1847 11.1507 90.9475 16.8282H78.294C78.7146 19.1615 80.3867 20.656 83.2669 20.656ZM87.1072 14.1291C86.7512 11.9142 85.4243 10.3012 82.8463 10.3012C80.3867 10.3012 78.7146 11.6775 78.294 14.1291H87.1072ZM0 20.4733L9.77326 10.5915H0.237319V7.48397H14.2608V10.656L4.55223 20.5915H14.4441V23.6453H0V20.4733ZM25.3608 20.656C27.0436 20.7205 28.597 20.054 29.7945 18.9248L32.0166 21.3227C30.3014 23.1076 27.8959 24.0646 25.4255 23.9571C20.032 23.9571 16.5585 20.3657 16.5585 15.5162C16.5585 10.7314 20.2154 7.07539 24.9509 7.07539C30.3446 7.07539 33.3434 11.1507 33.1061 16.8282H20.3771C20.8626 19.1615 22.4807 20.656 25.3608 20.656ZM29.2551 14.1291C28.8991 11.9142 27.5723 10.3012 24.9941 10.3012C22.5346 10.3012 20.8626 11.6775 20.4418 14.1291H29.2551ZM54.1305 15.5055C54.1305 10.355 58.0246 7.12916 62.2857 7.12916C64.4431 7.12916 66.482 8.08616 67.6793 9.58074V0.00012207H71.1528V23.6453H67.6793V21.4302C66.3417 23.054 64.3353 24.0001 62.221 24.0001C60.0203 23.9571 57.9169 23.0324 56.4066 21.4302C54.8856 19.8388 54.0658 17.7098 54.1305 15.5055ZM67.8627 15.5055C67.8735 13.6669 66.9026 11.9571 65.3061 11.0324C63.7095 10.1076 61.7462 10.097 60.1497 11.0001C58.5532 11.9033 57.5608 13.6024 57.5501 15.441C57.5501 18.3764 59.7723 20.7098 62.7064 20.7098C65.7052 20.7743 67.8627 18.441 67.8627 15.5055ZM93.2127 20.1721L96.3303 18.5592C97.1717 20.054 98.7898 20.9571 100.462 20.8926C102.436 20.8926 103.396 19.8711 103.396 18.742C103.396 17.4302 101.541 17.183 99.437 16.7635C96.6754 16.1615 93.8061 15.269 93.8061 11.9142C93.8061 9.3442 96.2655 7.00016 100.106 7.00016C103.105 7.00016 105.381 8.1937 106.643 10.1076L103.763 11.6668C102.954 10.4518 101.562 9.75278 100.106 9.80655C98.2504 9.80655 97.2904 10.7098 97.2904 11.7205C97.2904 12.8603 98.7898 13.2152 101.13 13.699C103.773 14.3012 106.827 15.14 106.827 18.5485C106.827 20.7635 104.852 23.8174 100.236 23.7529C96.9343 23.9464 94.5395 22.57 93.2127 20.1721ZM116.298 16.4625L113.536 19.398V23.6453H110.063V0.00012207H113.536V15.441L120.849 7.41947H125.046L118.692 14.3657L125.229 23.6453H121.336L116.298 16.4625ZM43.6992 7.12916C39.6217 7.12916 36.1481 9.76351 36.1481 14.1936V23.656H39.6864V14.613C39.6864 11.9787 41.1857 10.3657 43.8178 10.3657C46.3961 10.3657 47.712 11.9787 47.712 14.613V23.656H51.2502V14.1936C51.2502 9.75278 47.8415 7.12916 43.6992 7.12916Z"></path>
</svg>
