<svg width="38" height="38" viewBox="0 0 38 38" fill="none" xmlns="http://www.w3.org/2000/svg">
<g clip-path="url(#clip0_601_39351)">
<g clip-path="url(#clip1_601_39351)">
<g clip-path="url(#clip2_601_39351)">
<path fill-rule="evenodd" clip-rule="evenodd" d="M27.1295 12.5421H33.0274V15.4514H27.1289L27.1295 12.5421ZM27.1295 8.18066H33.0274V11.0887H27.1289L27.1295 8.18066ZM27.1295 17.0021H33.0274V19.9108H27.1289L27.1295 17.0021ZM27.1295 21.3648H33.0274V24.2734H27.1289L27.1295 21.3648Z" fill="#02723B"/>
<path fill-rule="evenodd" clip-rule="evenodd" d="M27.1314 25.8248H33.0293V28.7328H27.1308L27.1314 25.8248ZM36.4136 4.20425H22.1996V0.229736L0.636719 4.01018V33.2889L22.1996 36.9733V32.5176H36.4136C36.9933 32.5176 37.3802 32.0333 37.3802 31.5534V5.17401C37.3802 4.68975 36.9933 4.20983 36.413 4.20983L36.4136 4.20425ZM12.8195 25.1458L10.7894 19.8177H10.6976C10.6976 19.9101 8.66698 24.8587 8.66698 24.8587L5.95984 24.6653L9.15 18.3637L6.24941 12.0621L8.95716 11.8687L10.7944 16.813H10.8861C10.8861 16.7212 12.9162 11.6746 12.9162 11.6746L15.72 11.4812L12.3364 18.3643L15.8174 25.2481L12.8201 25.1557L12.8195 25.1458ZM36.1222 31.4474H22.1996V28.7378H25.5838V25.8291H22.1996V24.3707H25.5838V21.4627H22.1996V20.0075H25.5838V17.0994H22.1996V15.6442H25.5838V12.7361H22.1996V11.2821H25.5838V8.37285H22.1996V5.46481H36.1234V31.4467L36.1222 31.4474Z" fill="#02723B"/>
<path fill-rule="evenodd" clip-rule="evenodd" d="M26.8984 12.3126H32.7963V15.2213H26.8991L26.8984 12.3126ZM26.8984 7.95056H32.7963V10.8592H26.8991L26.8984 7.95056ZM26.8984 16.7726H32.7963V19.6807H26.8991L26.8984 16.7726ZM26.8984 21.1353H32.7963V24.0439H26.8991L26.8984 21.1353Z" fill="#02723B"/>
<path fill-rule="evenodd" clip-rule="evenodd" d="M26.9003 25.5954H32.7983V28.5034H26.901L26.9003 25.5954ZM36.1825 3.97488H21.9691V0.000366211L0.40625 3.78143V33.0602L21.9691 36.7439V32.2888H36.1825C36.7629 32.2888 37.1498 31.8046 37.1498 31.3246V4.94464C37.1498 4.46038 36.7629 3.98046 36.1825 3.98046V3.97488ZM12.5884 24.9164L10.5583 19.5884H10.4666C10.4666 19.6801 8.43651 24.6294 8.43651 24.6294L5.72875 24.4359L8.91953 18.1343L6.01894 11.8328L8.72669 11.6387L10.5633 16.583H10.6557C10.6557 16.4912 12.6857 11.4452 12.6857 11.4452L15.4896 11.2512L12.1053 18.135L15.5869 25.0181L12.5896 24.9264L12.5884 24.9164ZM35.8917 31.218H21.9691V28.5084H25.3527V25.5991H21.9691V24.1408H25.3527V21.2327H21.9691V19.7775H25.3527V16.8694H21.9691V15.4148H25.3527V12.5068H21.9691V11.0521H25.3527V8.14286H21.9691V5.23482H35.8929V31.2174L35.8917 31.218Z" fill="#02723B"/>
</g>
</g>
</g>
<defs>
<clipPath id="clip0_601_39351">
<rect width="37.203" height="37.203" fill="white" transform="translate(0.40625)"/>
</clipPath>
<clipPath id="clip1_601_39351">
<rect width="37.203" height="37.203" fill="white" transform="translate(0.40625 0.00012207)"/>
</clipPath>
<clipPath id="clip2_601_39351">
<rect width="37.203" height="37.203" fill="white" transform="translate(0.40625 0.000244141)"/>
</clipPath>
</defs>
</svg>
